<?xml version="1.0" ?>
<!-- Uploaded to: SVG Repo, www.svgrepo.com, Generator: SVG Repo Mixer Tools -->
<svg width="800px" height="800px" viewBox="0 0 50 50" id="Message_And_Communication_Icons" version="1.1" xml:space="preserve" xmlns="http://www.w3.org/2000/svg" xmlns:xlink="http://www.w3.org/1999/xlink">
<g>
<g>
<g>
<g>
<path d="M35.3,27l-0.8-0.9c1.3-1.1,3-1.7,4.7-1.7v1.2C37.8,25.6,36.4,26.1,35.3,27z" style="fill:#0D5FC3;"/>
</g>
</g>
<g>
<g>
<path d="M34.1,29.8L33,29.3c0.3-0.6,0.6-1.2,1-1.7l0.9,0.8C34.6,28.8,34.3,29.3,34.1,29.8z" style="fill:#4DE0F9;"/>
</g>
</g>
<g>
<g>
<path d="M33.5,29.3l-1.1-0.5c0.3-0.6,0.6-1.2,1-1.7l0.9,0.8C34,28.4,33.7,28.8,33.5,29.3z" style="fill:#0D5FC3;"/>
</g>
</g>
<g>
<g>
<g>
<path d="M36.7,24.2c0.3,0,0.6-0.1,0.9-0.1c0.2,0,0.4,0,0.6,0c-1-1.5-2.4-2.6-4-3.4       C35.3,21.7,36.1,22.9,36.7,24.2z" style="fill:#4DE0F9;"/>
</g>
</g>
<g>
<g>
<path d="M42.6,26.3c1.2,1.2,1.9,2.9,1.9,4.8c0,0.9-0.2,1.8-0.5,2.6H29.1c0,0.1,0,0.2,0,0.3       c0,0.5,0.1,0.9,0.2,1.3h17.2c0.3-0.8,0.5-1.7,0.5-2.6C47,29.8,45.1,27.3,42.6,26.3z" style="fill:#4DE0F9;"/>
</g>
</g>
</g>
<g>
<g>
<path d="M46,35H14l-0.1-0.5c-0.1-0.5-0.2-1-0.2-1.5c0-3.1,2.3-5.7,5.3-6.1c0.9-4.9,5.2-8.5,10.3-8.5      c4.1,0,7.7,2.3,9.4,6c0.2,0,0.4,0,0.5,0c4.1,0,7.5,3.4,7.5,7.5c0,1-0.2,1.9-0.6,2.8L46,35z M15,33.8h30.2c0.2-0.6,0.3-1.3,0.3-2      c0-3.5-2.8-6.3-6.3-6.3c-0.3,0-0.6,0-0.8,0.1L38,25.7l-0.2-0.4c-1.5-3.4-4.8-5.6-8.5-5.6c-4.6,0-8.5,3.4-9.1,8l-0.1,0.5l-0.5,0      c-2.6,0.2-4.7,2.4-4.7,5C14.9,33.4,14.9,33.6,15,33.8z" style="fill:#0D5FC3;"/>
</g>
</g>
</g>
<g>
<g>
<g>
<path d="M13.9,11.6c1,1.1,1.6,2.6,1.6,4.2c0,3.4-2.8,6.1-6.2,6.1c-0.7,0-1.4-0.1-2-0.4      c1.1,1.2,2.7,2,4.5,2c3.4,0,6.2-2.7,6.2-6.1C18,14.8,16.3,12.5,13.9,11.6z" style="fill:#4DE0F9;"/>
</g>
</g>
<g>
<g>
<path d="M11,23.3C11,23.3,11,23.3,11,23.3c-1.9,0-3.6-0.7-4.8-2s-1.9-3-1.9-4.8c0-3.7,3.1-6.7,6.8-6.7      c0,0,0,0,0.1,0c1.8,0,3.5,0.7,4.8,2s1.9,3,1.9,4.8C17.8,20.4,14.7,23.3,11,23.3z M11,11c-1.5,0-2.8,0.6-3.9,1.6      c-1.1,1-1.7,2.4-1.7,3.9c0,1.5,0.5,2.9,1.6,3.9c1,1.1,2.4,1.7,3.9,1.7c1.4,0,2.9-0.5,3.9-1.6c1.1-1,1.7-2.4,1.7-3.9l0,0      c0-1.5-0.5-2.9-1.6-3.9C14,11.6,12.6,11,11,11C11.1,11,11.1,11,11,11z" style="fill:#0D5FC3;"/>
</g>
</g>
<g>
<g>
<path d="M3.6,34.5H2.4v-2.2c0.1-4.7,3.9-8.5,8.6-8.5c0,0,0.1,0,0.1,0c2.3,0,4.4,0.9,6,2.6l-0.9,0.8      c-1.4-1.4-3.2-2.2-5.2-2.2c0,0-0.1,0-0.1,0c-4,0-7.3,3.3-7.4,7.3V34.5z" style="fill:#0D5FC3;"/>
</g>
</g>
<g>
<g>
<rect height="1.2" style="fill:#0D5FC3;" width="2.8" x="5.5" y="31.3"/>
</g>
</g>
<g>
<g>
<rect height="7.1" style="fill:#0D5FC3;" width="1.2" x="10.4" y="27.4"/>
</g>
</g>
</g>
</g>
</svg>